<svg width="221" height="72" viewBox="0 0 221 72" fill="none" xmlns="http://www.w3.org/2000/svg">
<path d="M1.9202 71.04V57.504L24.1922 36C26.8162 33.44 28.7682 31.072 30.0482 28.896C31.3922 26.72 32.0642 24.352 32.0642 21.792C32.0642 18.976 31.2962 16.8 29.7602 15.264C28.2882 13.728 26.2402 12.96 23.6162 12.96C20.7362 12.96 18.4642 13.824 16.8002 15.552C15.2002 17.216 14.4002 19.552 14.4002 22.56H0.000195384C0.000195384 17.952 0.960196 13.984 2.8802 10.656C4.8642 7.26404 7.6482 4.64004 11.2322 2.78404C14.8162 0.928038 19.0402 3.8147e-05 23.9042 3.8147e-05C28.4482 3.8147e-05 32.3842 0.864037 35.7122 2.59203C39.1042 4.25603 41.7282 6.59204 43.5842 9.60003C45.5042 12.608 46.4642 16.16 46.4642 20.256C46.4642 24.8 45.3442 29.152 43.1042 33.312C40.8642 37.472 37.2802 41.824 32.3522 46.368L19.6802 58.08H47.2322V71.04H1.9202ZM81.6587 72C76.9227 72 72.8267 71.136 69.3707 69.408C65.9147 67.616 63.2267 65.152 61.3067 62.016C59.4507 58.816 58.5227 55.104 58.5227 50.88V21.12C58.5227 16.896 59.4507 13.216 61.3067 10.08C63.2267 6.88003 65.9147 4.41603 69.3707 2.68804C72.8267 0.896038 76.8907 3.8147e-05 81.5627 3.8147e-05C86.2987 3.8147e-05 90.3627 0.896038 93.7547 2.68804C97.2107 4.41603 99.8667 6.88003 101.723 10.08C103.643 13.216 104.603 16.896 104.603 21.12V50.88C104.603 55.104 103.643 58.816 101.723 62.016C99.8667 65.152 97.2107 67.616 93.7547 69.408C90.3627 71.136 86.3307 72 81.6587 72ZM81.5627 59.52C84.5707 59.52 86.9067 58.752 88.5707 57.216C90.2987 55.68 91.1627 53.568 91.1627 50.88V21.12C91.1627 18.432 90.2987 16.32 88.5707 14.784C86.9067 13.248 84.5707 12.48 81.5627 12.48C78.5547 12.48 76.1867 13.248 74.4587 14.784C72.7947 16.32 71.9627 18.432 71.9627 21.12V50.88C71.9627 53.568 72.8267 55.68 74.5547 57.216C76.2827 58.752 78.6187 59.52 81.5627 59.52ZM81.5627 42.624C79.5787 42.624 77.9467 41.984 76.6667 40.704C75.4507 39.424 74.8427 37.76 74.8427 35.712C74.8427 33.664 75.4507 32.032 76.6667 30.816C77.9467 29.6 79.5787 28.992 81.5627 28.992C83.6107 28.992 85.2427 29.6 86.4587 30.816C87.6747 32.032 88.2827 33.664 88.2827 35.712C88.2827 37.76 87.6747 39.424 86.4587 40.704C85.2427 41.984 83.6107 42.624 81.5627 42.624ZM139.221 72C134.485 72 130.389 71.136 126.933 69.408C123.477 67.616 120.789 65.152 118.869 62.016C117.013 58.816 116.085 55.104 116.085 50.88V21.12C116.085 16.896 117.013 13.216 118.869 10.08C120.789 6.88003 123.477 4.41603 126.933 2.68804C130.389 0.896038 134.453 3.8147e-05 139.125 3.8147e-05C143.861 3.8147e-05 147.925 0.896038 151.317 2.68804C154.773 4.41603 157.429 6.88003 159.285 10.08C161.205 13.216 162.165 16.896 162.165 21.12V50.88C162.165 55.104 161.205 58.816 159.285 62.016C157.429 65.152 154.773 67.616 151.317 69.408C147.925 71.136 143.893 72 139.221 72ZM139.125 59.52C142.133 59.52 144.469 58.752 146.133 57.216C147.861 55.68 148.725 53.568 148.725 50.88V21.12C148.725 18.432 147.861 16.32 146.133 14.784C144.469 13.248 142.133 12.48 139.125 12.48C136.117 12.48 133.749 13.248 132.021 14.784C130.357 16.32 129.525 18.432 129.525 21.12V50.88C129.525 53.568 130.389 55.68 132.117 57.216C133.845 58.752 136.181 59.52 139.125 59.52ZM139.125 42.624C137.141 42.624 135.509 41.984 134.229 40.704C133.013 39.424 132.405 37.76 132.405 35.712C132.405 33.664 133.013 32.032 134.229 30.816C135.509 29.6 137.141 28.992 139.125 28.992C141.173 28.992 142.805 29.6 144.021 30.816C145.237 32.032 145.845 33.664 145.845 35.712C145.845 37.76 145.237 39.424 144.021 40.704C142.805 41.984 141.173 42.624 139.125 42.624ZM189.488 62.4V46.08H173.168V32.64H189.488V16.32H203.888V32.64H220.208V46.08H203.888V62.4H189.488Z" fill="#27272A"/>
</svg>
