<svg xmlns="http://www.w3.org/2000/svg" width="223" height="49" fill="none"><g clip-path="url(#a)"><path fill="#ED7E23" d="M187.644 14.688h3.627c1.851 2.847 2.623 5.984 2.781 9.287h-3.629c-.186-3.296-.92-6.442-2.779-9.287M198.249 14.687h2.28v5.504c-.43-1.924-1.147-3.77-2.28-5.504m-5.295 0h3.641c1.859 2.856 2.632 6.005 2.791 9.32h-3.643c-.185-3.307-.923-6.465-2.789-9.32M75.275 45.055H0v.718h75.275zM223 45.055h-75.275v.718H223z"/><path fill="#fff" d="M22.153 22.529q2.368-1.507 3.658-4.167 1.291-2.662 1.293-5.778c0-3.768-1.159-6.686-3.47-8.767Q20.166.697 13.28.697H0v37.64h10.699v-13.28h1.937l6.345 13.28h11.775zm-7.133-7.124c-.649.625-1.562.942-2.744.942h-1.774V9.675h1.774q3.712.002 3.711 3.284c0 1.005-.323 1.817-.967 2.446M223 38.304h-11.785l-6.86-14.266h-1.23v-9.296h1.235c.02 0 .034 0 .053-.005a2.34 2.34 0 0 0 2.293-2.346 2.343 2.343 0 0 0-2.346-2.346h-1.437v1.965h-11.108v-1.965h-10.479v4.624h4.624c1.856 2.846 2.63 5.99 2.788 9.291h-7.412v4.994h10.479V26.99h11.108v11.319h-32.271V10.056h-9.844v5.269h5.883v9.305h-5.883V38.34h-10.703V.699h41.606v.004h13.29q6.89-.002 10.362 3.124c2.312 2.077 3.466 5.004 3.466 8.767 0 4.912-1.135 6.493-4.95 8.916zM148.628.698h-10.702v37.64h10.702zM102.894 38.339V.699h10.915l12.099 21.348V.698h10.54v37.64h-10.647l-12.422-21.025V38.34zM95.785 5.566Q90.19.001 81.048 0c-6.094 0-11.002 1.855-14.733 5.566q-5.594 5.566-5.594 13.9 0 8.442 5.594 14.008c3.73 3.71 8.637 5.566 14.733 5.566q9.14 0 14.737-5.566 5.588-5.565 5.59-14.007 0-8.335-5.59-13.9m-8.123 20.918c-1.682 1.846-3.889 2.77-6.613 2.77-2.726 0-4.927-.924-6.614-2.77q-2.525-2.774-2.527-7.017.002-4.196 2.528-6.941c1.687-1.827 3.888-2.74 6.613-2.74q4.089 0 6.613 2.74c1.688 1.83 2.528 4.143 2.528 6.94 0 2.831-.84 5.168-2.528 7.018"/><path fill="#fff" d="M32.59 38.339V16.346h12.474q1.776 0 2.744-.941t.968-2.446q0-3.28-3.711-3.281H43.29v.002H32.59V.698h13.282q6.883 0 10.351 3.12 3.47 3.118 3.47 8.763 0 3.12-1.291 5.78-1.29 2.663-3.657 4.168l8.604 15.809H51.572l-6.345-13.28H43.29V38.34H32.59zM83.817 48.707q-.645 0-1.156-.218a2.6 2.6 0 0 1-.872-.598 2.6 2.6 0 0 1-.552-.892 3.1 3.1 0 0 1-.19-1.091v-.015a2.92 2.92 0 0 1 .754-1.968q.357-.39.859-.62a2.65 2.65 0 0 1 1.116-.228q.342 0 .625.046a2.6 2.6 0 0 1 .988.37q.214.136.417.307l-.397.466a3 3 0 0 0-.328-.252 2.3 2.3 0 0 0-.37-.194 2.4 2.4 0 0 0-.436-.129 2.7 2.7 0 0 0-.525-.045q-.451 0-.832.179-.382.18-.654.48a2.3 2.3 0 0 0-.428.713 2.4 2.4 0 0 0-.155.859v.017q0 .49.152.901.151.414.431.716.28.304.676.475.398.171.894.172.466 0 .879-.16.411-.159.692-.384V46.26H83.75v-.551h2.248v2.17a3.5 3.5 0 0 1-.937.588q-.55.239-1.243.24M95.166 43.169h2.34q.505 0 .9.144.39.143.648.4a1.4 1.4 0 0 1 .312.475q.109.273.108.6v.015q0 .341-.108.61a1.4 1.4 0 0 1-.308.466q-.198.2-.47.328-.273.128-.59.183l1.67 2.225h-.754L97.336 46.5H95.78v2.115h-.613zm2.29 2.776q.304 0 .561-.077.258-.078.444-.221a1 1 0 0 0 .293-.35q.105-.205.105-.472v-.015q0-.506-.366-.788-.367-.285-1.03-.284H95.78v2.208h1.677zM111.096 48.707q-.624 0-1.133-.226a2.69 2.69 0 0 1-1.437-1.504 3 3 0 0 1-.198-1.07v-.014q0-.56.203-1.074t.567-.899a2.74 2.74 0 0 1 2.016-.843q.621 0 1.131.225a2.67 2.67 0 0 1 1.438 1.506q.198.509.198 1.068.009.008 0 .017 0 .559-.203 1.073a2.8 2.8 0 0 1-.567.899 2.7 2.7 0 0 1-.879.614q-.516.226-1.136.227m.015-.568q.466-.001.859-.175.392-.175.672-.478a2.2 2.2 0 0 0 .439-.708q.159-.405.159-.87v-.015a2.4 2.4 0 0 0-.159-.876 2.2 2.2 0 0 0-.446-.712 2.2 2.2 0 0 0-.681-.481 2.04 2.04 0 0 0-.859-.18 2.1 2.1 0 0 0-.861.176 2 2 0 0 0-.672.478 2.2 2.2 0 0 0-.439.707q-.16.405-.16.87v.018q0 .465.16.874t.446.712q.29.304.681.483.395.177.861.177M125.133 48.699q-.505 0-.921-.152a1.92 1.92 0 0 1-1.179-1.195 2.9 2.9 0 0 1-.163-1.019v-3.166h.613v3.128q0 .886.439 1.36.44.475 1.225.474.755 0 1.199-.451.442-.451.443-1.346v-3.166h.614v3.119q0 .6-.163 1.05a2.1 2.1 0 0 1-.464.755q-.299.303-.715.454a2.6 2.6 0 0 1-.928.155M136.638 43.169h2.037q.46 0 .837.12.377.122.645.343a1.5 1.5 0 0 1 .413.54q.144.319.144.723v.015q.001.445-.172.775-.171.33-.462.557-.294.224-.682.338a3 3 0 0 1-.825.113h-1.323v1.922h-.613v-5.446zm1.964 2.971q.335 0 .612-.085t.476-.246a1.08 1.08 0 0 0 .408-.87v-.015q0-.586-.402-.886-.4-.3-1.064-.3h-1.381v2.402z"/></g><defs><clipPath id="a"><path fill="#fff" d="M0 0h223v48.828H0z"/></clipPath></defs></svg>